<svg width="46" height="46" viewBox="0 0 46 46" fill="none" xmlns="http://www.w3.org/2000/svg">
    <path d="M33.5941 23.6396C34.7729 23.5749 35.9516 23.539 37.1232 23.4527V22.5471C35.9445 22.4609 34.7657 22.4249 33.5941 22.3602L30.0651 22.2524C27.9951 22.1877 25.9179 22.1733 23.8479 22.159C23.8407 20.0818 23.8335 18.0118 23.776 15.9346L23.6754 12.4056C23.6179 11.2268 23.582 10.048 23.4957 8.87646H22.4966C22.4104 10.0552 22.3816 11.234 22.317 12.4056L22.2163 15.9346C22.1876 16.9049 22.1804 17.8824 22.166 18.8527C21.7851 17.9543 21.397 17.063 21.0016 16.1718L19.557 12.9446C19.0538 11.8809 18.5651 10.8027 18.0404 9.74617L17.1204 10.1271C17.4941 11.2483 17.911 12.348 18.3063 13.4549L19.5641 16.754C19.9091 17.6596 20.2757 18.5652 20.6351 19.4708C19.9379 18.788 19.2407 18.1124 18.5363 17.444L15.9704 15.0146C15.0935 14.224 14.2382 13.419 13.347 12.6427L12.6426 13.3471C13.4188 14.2384 14.2238 15.0936 15.0145 15.9705L17.4438 18.5365C18.1123 19.2408 18.7951 19.938 19.4707 20.6352C18.5651 20.2758 17.6666 19.9093 16.7538 19.5643L13.4548 18.3065C12.3407 17.9111 11.241 17.4943 10.127 17.1206L9.74602 18.0405C10.8026 18.5652 11.8735 19.054 12.9373 19.5571L16.1645 21.0018C17.0557 21.3971 17.947 21.7852 18.8454 22.1661C17.8751 22.1733 16.8976 22.1877 15.9273 22.2165L12.3982 22.3171C11.2195 22.3746 10.0407 22.4105 8.86914 22.4968V23.4959C10.0479 23.5821 11.2266 23.6109 12.3982 23.6755L15.9273 23.7761C18.0045 23.8336 20.0745 23.8409 22.1516 23.848C22.166 25.918 22.1804 27.9952 22.2451 30.0652L22.3529 33.5943C22.4176 34.773 22.4535 35.9518 22.5398 37.1233H23.4454C23.5316 35.9446 23.5676 34.7659 23.6323 33.5943L23.7401 30.0652C23.7688 29.0661 23.7904 28.0743 23.7976 27.0752C24.1929 27.988 24.5882 28.908 24.9979 29.8137L26.4498 33.0336C26.9601 34.0974 27.4416 35.1683 27.9735 36.2249L28.8073 35.8799C28.4335 34.7587 28.0238 33.659 27.6285 32.5449L26.3779 29.2387C26.0257 28.3043 25.6591 27.3771 25.2926 26.4499C26.0041 27.1471 26.7229 27.8371 27.4488 28.5199L30.022 30.9421C30.8988 31.7327 31.7613 32.5377 32.6526 33.3068L33.2923 32.6671C32.5232 31.7759 31.7182 30.9133 30.9276 30.0365L28.5054 27.4633C27.8226 26.7374 27.1326 26.0186 26.4354 25.3071C27.3626 25.6736 28.2898 26.0402 29.2241 26.3924L32.5304 27.643C33.6445 28.0383 34.7441 28.448 35.8654 28.8218L36.2104 27.988C35.1538 27.4562 34.0829 26.9746 33.0191 26.4643L29.7991 25.0124C28.8935 24.6027 27.9735 24.2074 27.0607 23.8121C28.0598 23.7977 29.0516 23.7833 30.0507 23.7546L33.5941 23.6396Z"
          fill="#007D85"/>
    <path d="M23 1.91905C11.3778 1.91905 1.91906 11.3778 1.91906 23C1.91906 34.6222 11.3778 44.0809 23 44.0809C34.6222 44.0809 44.0809 34.6222 44.0809 23C44.0809 11.3778 34.6222 1.91905 23 1.91905ZM23 46C10.3213 46 0 35.6859 0 23C0 10.3213 10.3141 0 23 0C35.6787 0 46 10.3141 46 23C45.9928 35.6787 35.6787 46 23 46Z"
          fill="#007D85"/>
</svg>
