<svg width="247" height="40" viewBox="0 0 247 40" fill="none" xmlns="http://www.w3.org/2000/svg">
    <path d="M230.785 10.5742V12.5637H237.696V29.3177H239.895V12.5637H246.806V10.5742H230.785Z" fill="white"/>
    <path d="M120.314 10.5742V29.3177H118.429L106.492 14.5533V29.3177H104.293V10.5742H106.073L118.115 25.548V10.5742H120.314Z"
          fill="white"/>
    <path d="M191.623 12.5637V18.9512H201.466V21.0454H191.623V27.3281H202.513V29.3177H189.424V10.5742H202.513V12.5637H191.623Z"
          fill="white"/>
    <path d="M181.78 21.2548C181.78 26.281 178.534 29.6318 173.717 29.6318C168.9 29.6318 165.654 26.281 165.654 21.2548V10.5742H167.853V21.2548C167.853 24.9198 170.157 27.5376 173.717 27.5376C177.173 27.5376 179.581 24.9198 179.581 21.2548V10.5742H181.78V21.2548Z"
          fill="white"/>
    <path d="M161.047 27.3281V29.3177H148.482V10.5742H150.681V27.3281H161.047Z" fill="white"/>
    <path d="M130.262 12.5637V19.4747H139.79V21.4643H130.262V29.3177H128.063V10.5742H140.942V12.5637H130.262Z"
          fill="white"/>
    <path d="M225.026 10.5742V29.3177H223.246L211.204 14.5533V29.3177H209.11V10.5742H210.785L222.827 25.548V10.5742H225.026Z"
          fill="white"/>
    <path d="M95.7068 19.8945C95.7068 15.6013 92.356 12.2505 88.1675 12.2505C83.9791 12.2505 80.6283 15.706 80.6283 19.8945C80.6283 24.1877 83.9791 27.5384 88.1675 27.5384C92.356 27.5384 95.7068 24.1877 95.7068 19.8945ZM97.9058 19.8945C97.9058 25.3395 93.5079 29.6327 88.1675 29.6327C82.7225 29.6327 78.4293 25.3395 78.4293 19.8945C78.4293 14.4494 82.8272 10.1562 88.1675 10.1562C93.6126 10.261 97.9058 14.5542 97.9058 19.8945Z"
          fill="white"/>
    <path d="M70.9948 22.617H73.2984C72.4607 26.8055 69.0052 29.6327 64.3979 29.6327C58.9529 29.6327 54.6597 25.4442 54.6597 19.8945C54.6597 14.3447 59.0576 10.1562 64.3979 10.1562C69.0052 10.1562 72.4607 12.9835 73.2984 17.172H70.9948C70.2618 14.1353 67.7487 12.1458 64.2932 12.1458C60 12.1458 56.7539 15.3919 56.7539 19.7898C56.7539 24.1877 60.1047 27.4337 64.2932 27.4337C67.7487 27.6432 70.1571 25.6536 70.9948 22.617Z"
          fill="white"/>
    <path d="M26.0733 19.3718C24.2932 19.2671 22.5131 19.2671 20.733 19.2671C20.733 17.487 20.733 15.7069 20.6283 13.9268L20.5236 10.8902C20.5236 9.84304 20.4188 8.90064 20.4188 7.85352H19.5811C19.4764 8.90064 19.4764 9.84304 19.4764 10.8902L19.3717 13.9268C19.3717 14.7645 19.3717 15.6022 19.3717 16.4399C19.0576 15.7069 18.7434 14.8692 18.3246 14.1362L17.0681 11.309C16.6492 10.3666 16.2304 9.4242 15.7068 8.5865L14.8691 8.90064C15.1832 9.84304 15.6021 10.7855 15.9162 11.8326L16.9633 14.6598C17.2775 15.4975 17.5916 16.2305 17.9057 16.9635C17.2775 16.3352 16.6492 15.8116 16.1256 15.1834L13.9267 13.0891C13.1937 12.3561 12.4607 11.7279 11.623 10.9949L10.9948 11.6231C11.623 12.3561 12.356 13.0891 13.089 13.9268L15.1832 16.1258C15.8115 16.754 16.3351 17.3823 16.9633 17.9059C16.2304 17.5917 15.3927 17.2776 14.6597 16.9635L11.8325 15.9163C10.89 15.6022 9.94763 15.1834 8.90051 14.8692L8.58638 15.7069C9.52879 16.1258 10.4712 16.5446 11.3089 17.0682L14.1361 18.3247C14.8691 18.6389 15.7068 18.953 16.4398 19.3718C15.6021 19.3718 14.7644 19.3718 13.9267 19.3718L10.89 19.4766C9.84292 19.4766 8.90051 19.5813 7.85339 19.5813V20.419C8.90051 20.5237 9.84292 20.5237 10.89 20.5237L13.9267 20.6284C15.7068 20.6284 17.4869 20.7331 19.267 20.7331C19.267 22.5132 19.267 24.2933 19.3717 26.0734L19.4764 29.1101C19.5811 30.1572 19.5811 31.0996 19.6859 32.1467H20.4188C20.5236 31.0996 20.5236 30.1572 20.6283 29.1101L20.733 26.0734C20.733 25.2357 20.733 24.398 20.8377 23.4556C21.1518 24.2933 21.5707 25.0263 21.8848 25.864L23.1414 28.6912C23.5602 29.6336 23.979 30.576 24.5026 31.4137L25.2356 31.0996C24.9215 30.1572 24.6073 29.2148 24.1885 28.1677L23.1414 25.3404C22.8272 24.5027 22.5131 23.7697 22.1989 22.932C22.8272 23.5603 23.4555 24.0839 24.0838 24.7122L26.2827 26.8064C27.0157 27.5394 27.7487 28.1677 28.5864 28.9006L29.1099 28.3771C28.4817 27.6441 27.7487 26.9111 27.0157 26.0734L24.9215 23.8745C24.2932 23.2462 23.7696 22.6179 23.1414 21.9896C23.979 22.3038 24.712 22.6179 25.5497 22.932L28.377 23.9792C29.3194 24.2933 30.2618 24.7122 31.3089 25.0263L31.623 24.2933C30.6806 23.8745 29.7382 23.4556 28.9005 22.932L26.0733 21.6755C25.2356 21.3614 24.5026 20.9425 23.6649 20.6284C24.5026 20.6284 25.3403 20.6284 26.2827 20.5237L29.3194 20.419C30.3665 20.3142 31.3089 20.3142 32.356 20.2095V19.4766C31.3089 19.3718 30.3665 19.3718 29.3194 19.2671L26.0733 19.3718Z"
          fill="white"/>
    <path d="M20 0C9.00524 0 0 9.00524 0 20C0 30.9948 9.00524 40 20 40C30.9948 40 40 30.9948 40 20C40 9.00524 30.9948 0 20 0ZM20 38.1152C10.0524 38.1152 1.88482 29.9476 1.88482 20C1.88482 10.0524 10.0524 1.88482 20 1.88482C29.9476 1.88482 38.1152 10.0524 38.1152 20C38.1152 30.0524 30.0524 38.1152 20 38.1152Z"
          fill="white"/>
</svg>
